<?xml version="1.0" encoding="UTF-8"?>
<svg id="Layer_2" data-name="Layer 2" xmlns="http://www.w3.org/2000/svg" xmlns:xlink="http://www.w3.org/1999/xlink" viewBox="0 0 160.43 20">
  <defs>
    <style>
      .cls-1 {
        fill: url(#linear-gradient-8);
      }

      .cls-2 {
        fill: url(#linear-gradient-7);
      }

      .cls-3 {
        fill: url(#linear-gradient-5);
      }

      .cls-4 {
        fill: url(#linear-gradient-6);
      }

      .cls-5 {
        fill: url(#linear-gradient-9);
      }

      .cls-6 {
        fill: url(#linear-gradient-4);
      }

      .cls-7 {
        fill: url(#linear-gradient-3);
      }

      .cls-8 {
        fill: url(#linear-gradient-2);
      }

      .cls-9 {
        fill: url(#linear-gradient);
      }

      .cls-10 {
        fill: #fff;
      }
    </style>
    <linearGradient id="linear-gradient" x1="15.95" y1="10" x2=".17" y2="9.83" gradientUnits="userSpaceOnUse">
      <stop offset="0" stop-color="#f7ffd5"/>
      <stop offset="1" stop-color="#c7dfed"/>
    </linearGradient>
    <linearGradient id="linear-gradient-2" x1="15.95" y1="10.02" x2=".17" y2="9.86" xlink:href="#linear-gradient"/>
    <linearGradient id="linear-gradient-3" x1="15.95" y1="10.04" x2=".17" y2="9.88" xlink:href="#linear-gradient"/>
    <linearGradient id="linear-gradient-4" x1="15.95" y1="10.06" x2=".17" y2="9.9" xlink:href="#linear-gradient"/>
    <linearGradient id="linear-gradient-5" x1="15.95" y1="10.08" x2=".17" y2="9.92" xlink:href="#linear-gradient"/>
    <linearGradient id="linear-gradient-6" x1="15.95" y1="10.1" x2=".16" y2="9.94" xlink:href="#linear-gradient"/>
    <linearGradient id="linear-gradient-7" x1="15.95" y1="10.12" x2=".16" y2="9.96" xlink:href="#linear-gradient"/>
    <linearGradient id="linear-gradient-8" x1="15.95" y1="10.15" x2=".16" y2="9.98" xlink:href="#linear-gradient"/>
    <linearGradient id="linear-gradient-9" x1="13.36" y1="10.14" x2=".14" y2="10" xlink:href="#linear-gradient"/>
  </defs>
  <g id="Layer_1-2" data-name="Layer 1">
    <g>
      <g>
        <path class="cls-10" d="M29.26,19.02V.98c0-.18.09-.26.26-.26h6.08c1.63,0,2.92.44,3.88,1.31.96.88,1.43,2.08,1.43,3.6v8.76c0,1.52-.48,2.72-1.43,3.59-.96.88-2.25,1.31-3.88,1.31h-6.08c-.18,0-.26-.09-.26-.27ZM30.4,18.36h5.25c1.31,0,2.34-.36,3.09-1.09.75-.73,1.13-1.71,1.13-2.95V5.7c0-1.26-.38-2.25-1.13-2.97s-1.78-1.09-3.09-1.09h-5.25c-.07,0-.11.04-.11.11v16.51c0,.07.03.11.11.11Z"/>
        <path class="cls-10" d="M51.75,18.76c-.91-.49-1.61-1.19-2.11-2.08-.49-.89-.74-1.92-.74-3.09v-7.14c0-1.17.25-2.2.74-3.1.5-.9,1.2-1.6,2.11-2.1.91-.5,1.96-.74,3.14-.74s2.26.25,3.17.74c.91.49,1.62,1.19,2.12,2.1.51.9.76,1.94.76,3.1v7.14c0,1.17-.25,2.2-.76,3.09-.5.89-1.21,1.59-2.12,2.08-.91.49-1.97.74-3.17.74s-2.23-.25-3.14-.74ZM58.53,17.22c.92-.9,1.38-2.1,1.38-3.58v-7.22c0-1.5-.46-2.71-1.38-3.62-.92-.91-2.13-1.37-3.63-1.37s-2.69.45-3.6,1.37c-.91.91-1.37,2.12-1.37,3.62v7.22c0,1.49.45,2.68,1.37,3.58.91.9,2.11,1.35,3.6,1.35s2.72-.45,3.63-1.35Z"/>
        <path class="cls-10" d="M80.35,2.03c.89.91,1.34,2.11,1.34,3.6s-.45,2.68-1.35,3.57-2.09,1.34-3.56,1.34h-5.81c-.07,0-.11.04-.11.11v8.39c0,.18-.09.27-.26.27h-.51c-.18,0-.27-.09-.27-.27V.92c0-.18.09-.27.27-.27h6.71c1.47,0,2.65.46,3.54,1.37ZM79.58,8.53c.72-.73,1.08-1.69,1.08-2.88s-.36-2.2-1.08-2.93c-.72-.74-1.66-1.1-2.83-1.1h-5.79c-.07,0-.11.03-.11.11v7.8c0,.07.04.11.11.11h5.79c1.17,0,2.11-.37,2.83-1.1Z"/>
        <path class="cls-10" d="M99.96,2.03c.89.91,1.34,2.11,1.34,3.6s-.45,2.68-1.35,3.57-2.09,1.34-3.56,1.34h-5.81c-.07,0-.11.04-.11.11v8.39c0,.18-.09.27-.26.27h-.51c-.18,0-.27-.09-.27-.27V.92c0-.18.09-.27.27-.27h6.71c1.47,0,2.65.46,3.54,1.37ZM99.19,8.53c.72-.73,1.08-1.69,1.08-2.88s-.36-2.2-1.08-2.93c-.72-.74-1.66-1.1-2.83-1.1h-5.79c-.07,0-.11.03-.11.11v7.8c0,.07.04.11.11.11h5.79c1.17,0,2.11-.37,2.83-1.1Z"/>
        <path class="cls-10" d="M109.26,19.02V.98c0-.18.09-.26.26-.26h.51c.18,0,.27.09.27.26v17.28c0,.07.03.11.11.11h9.63c.18,0,.27.09.27.27v.4c0,.18-.09.27-.27.27h-10.51c-.18,0-.26-.09-.26-.27Z"/>
        <path class="cls-10" d="M139.68,1.64h-10.24c-.07,0-.11.04-.11.11v7.64c0,.07.03.11.11.11h7.32c.18,0,.26.09.26.27v.42c0,.18-.09.26-.26.26h-7.32c-.07,0-.11.04-.11.11v7.7c0,.07.03.11.11.11h10.24c.18,0,.27.09.27.27v.4c0,.18-.09.27-.27.27h-11.12c-.18,0-.26-.09-.26-.27V.98c0-.18.09-.26.26-.26h11.12c.18,0,.27.09.27.26v.4c0,.18-.09.27-.27.27Z"/>
        <path class="cls-10" d="M159.42,19.1l-4.17-8.62c-.02-.05-.05-.08-.11-.08h-5.41c-.07,0-.11.04-.11.11v8.52c0,.18-.09.27-.27.27h-.51c-.18,0-.26-.09-.26-.27V.98c0-.18.09-.26.26-.26h6.5c1.45,0,2.62.45,3.52,1.35s1.34,2.08,1.34,3.53c0,1.27-.35,2.33-1.05,3.17s-1.64,1.36-2.83,1.55c-.09.04-.12.08-.08.13l4.14,8.52s.03.08.03.13c0,.12-.07.19-.21.19h-.48c-.16,0-.27-.06-.32-.19ZM149.63,1.75v7.67c0,.07.03.11.11.11h5.6c1.15,0,2.08-.36,2.79-1.09s1.06-1.66,1.06-2.81-.35-2.14-1.06-2.88c-.71-.73-1.64-1.1-2.79-1.1h-5.6c-.07,0-.11.04-.11.11Z"/>
      </g>
      <g>
        <g>
          <rect class="cls-9" x="15.62" y="5.5" width=".8" height="9" rx=".2" ry=".2"/>
          <rect class="cls-8" x="13.62" y="3" width=".8" height="14" rx=".2" ry=".2"/>
          <rect class="cls-7" x="11.67" y="1.5" width=".7" height="17" rx=".17" ry=".17"/>
          <rect class="cls-6" x="9.72" y=".5" width=".6" height="19" rx=".15" ry=".15"/>
          <rect class="cls-3" x="7.77" y="0" width=".5" height="20" rx=".12" ry=".12"/>
          <rect class="cls-4" x="5.83" y="0" width=".4" height="20" rx=".1" ry=".1"/>
          <rect class="cls-2" x="3.87" y="0" width=".3" height="20" rx=".07" ry=".07"/>
        </g>
        <rect class="cls-1" x="1.92" y="0" width=".2" height="20" rx=".05" ry=".05"/>
        <rect class="cls-5" x="0" y="0" width=".05" height="20" rx=".02" ry=".02"/>
      </g>
    </g>
  </g>
</svg>